<?xml version="1.0" encoding="utf-8"?>
<!-- Generator: Adobe Illustrator 17.0.0, SVG Export Plug-In . SVG Version: 6.00 Build 0)  -->
<!DOCTYPE svg PUBLIC "-//W3C//DTD SVG 1.1//EN" "http://www.w3.org/Graphics/SVG/1.1/DTD/svg11.dtd">
<svg version="1.1" id="Layer_1" xmlns="http://www.w3.org/2000/svg" xmlns:xlink="http://www.w3.org/1999/xlink" x="0px" y="0px"
	 width="400px" height="400px" viewBox="0 0 400 400" enable-background="new 0 0 400 400" xml:space="preserve">
<desc>Created with Snap</desc>
<g id="XMLID_1_">
	<g>
		<path fill="#5A70B1" d="M350.004,113.379c-14.709-8.508-31.787-13.377-50.003-13.377c0-18.216-4.869-35.294-13.377-50.003
			c18.216,0,35.283,4.879,49.992,13.388C345.125,78.096,350.004,95.163,350.004,113.379z"/>
		<path fill="#5A70B1" d="M350.004,286.625c0,18.206-4.879,35.283-13.388,49.992c-14.709,8.508-31.787,13.388-49.992,13.388
			c8.508-14.709,13.377-31.787,13.377-50.003C318.218,300.002,335.295,295.133,350.004,286.625z"/>
		<path fill="#E62314" d="M199.997,199.966c-0.285-0.498-0.579-0.986-0.874-1.474c-7.98-14.363-12.524-30.892-12.524-48.488
			c0-0.01,0-0.031,0-0.041C195.118,164.673,199.987,181.75,199.997,199.966z"/>
		<path fill="#FDDF21" d="M163.351,236.652c-8.488,14.699-13.347,31.766-13.347,49.952c0,0.01,0,0.01,0,0.02
			c-14.709,8.508-31.787,13.377-50.003,13.377c0-18.216,4.869-35.294,13.377-50.003c0.01,0,0.01,0,0.02,0
			C131.595,249.999,148.652,245.14,163.351,236.652z"/>
		<path fill="#5A70B1" d="M336.627,163.392c8.508-14.709,13.377-31.787,13.377-49.992c0-0.01,0-0.01,0-0.02
			c15.166,8.773,27.812,21.418,36.595,36.584c0,0.01,0,0.03,0,0.041c0,18.216-4.869,35.294-13.377,50.003
			C364.449,184.83,351.794,172.175,336.627,163.392z"/>
		<path fill="#24A14D" d="M200.007,26.772c15.166,8.783,27.822,21.428,36.605,36.605c-15.177,8.773-27.832,21.428-36.615,36.595
			c-8.783-15.166-21.438-27.822-36.605-36.595C172.175,48.2,184.83,35.544,200.007,26.772z"/>
		<path fill="#E62314" d="M198.614,200.8c0.447-0.244,0.884-0.498,1.332-0.742c-0.274,0.488-0.549,0.966-0.823,1.454
			c-8.742,14.526-21.083,26.653-35.771,35.141c8.488-14.699,20.615-27.029,35.141-35.781
			C198.533,200.851,198.574,200.83,198.614,200.8z"/>
		<path fill="#814297" d="M336.617,63.387c-14.709-8.508-31.776-13.388-49.992-13.388c-8.773-15.166-21.418-27.822-36.595-36.605
			C287.021,13.405,319.326,33.511,336.617,63.387z"/>
		<path fill="#814297" d="M336.617,336.617c-17.291,29.875-49.596,49.972-86.587,49.982c15.177-8.783,27.822-21.428,36.595-36.595
			C304.83,350.004,321.908,345.125,336.617,336.617z"/>
		<path fill="#F2793F" d="M250.03,186.599c18.216,0.01,35.283,4.879,49.992,13.398c-14.709,8.518-31.776,13.388-49.992,13.398
			c-14.699-8.518-31.776-13.388-49.992-13.398C218.253,199.987,235.331,195.118,250.03,186.599z"/>
		<path fill="#E62314" d="M199.123,198.492c0.264,0.488,0.539,0.966,0.813,1.443c-0.478-0.274-0.956-0.549-1.443-0.813
			c-14.526-8.742-26.653-21.083-35.141-35.771C178.04,171.839,190.381,183.966,199.123,198.492z"/>
		<path fill="#FDDF21" d="M163.351,163.351c-14.699-8.488-31.756-13.347-49.952-13.347c-0.01,0-0.01,0-0.02,0
			c-8.508-14.709-13.377-31.787-13.377-50.003c18.216,0,35.294,4.869,50.003,13.377c0,0.01,0,0.01,0,0.02
			C150.004,131.595,154.863,148.652,163.351,163.351z"/>
		<path d="M200.027,200.007c0,0.01,0.01,0.031,0.02,0.041c-0.01-0.01-0.031-0.02-0.041-0.02c0-0.01,0-0.01,0-0.01
			c0.01-0.01,0.01-0.01,0.01-0.01H200.027z"/>
		<path fill="#814297" d="M386.599,149.964c-8.783-15.166-21.428-27.812-36.595-36.584c0-18.216-4.879-35.283-13.388-49.992
			C366.482,80.678,386.589,112.973,386.599,149.964z"/>
		<path fill="#24A14D" d="M300.002,100.002c18.216,0,35.294,4.869,50.003,13.377c0,0.01,0,0.01,0,0.02
			c0,18.206-4.869,35.283-13.377,49.992c-14.709-8.508-31.787-13.388-50.003-13.388
			C295.133,135.295,300.002,118.218,300.002,100.002z"/>
		<path fill="#24A14D" d="M200.007,200.017c0,0,0,0,0,0.01h-0.01v-0.01C199.997,200.017,199.997,200.017,200.007,200.017z"/>
		<path fill="#E62314" d="M199.997,200.037c-0.01,18.216-4.879,35.283-13.398,49.992c0-0.01,0-0.02,0-0.03
			c0-17.596,4.544-34.135,12.524-48.488C199.417,201.024,199.712,200.525,199.997,200.037z"/>
		<path fill="#5A70B1" d="M200.007,26.772c-15.177,8.773-27.832,21.428-36.615,36.605c-14.709-8.508-31.776-13.377-49.992-13.377
			c-0.01,0-0.01,0-0.02,0c8.773-15.166,21.418-27.822,36.585-36.605c0.01,0,0.03,0,0.041,0
			C168.22,13.395,185.298,18.264,200.007,26.772z"/>
		<path fill="#5A70B1" d="M250.03,13.395c15.177,8.783,27.822,21.438,36.595,36.605c-0.01,0-0.01,0-0.02,0
			c-18.206,0-35.283,4.869-49.992,13.377c-8.783-15.177-21.438-27.822-36.605-36.605c14.709-8.508,31.776-13.377,49.992-13.377
			C250.01,13.395,250.02,13.395,250.03,13.395z"/>
		<path fill="#F2793F" d="M113.4,150.004c18.196,0,35.253,4.859,49.952,13.347c8.488,14.689,20.615,27.029,35.141,35.771
			c-14.363-7.98-30.892-12.523-48.488-12.523c-0.01,0-0.03,0-0.041,0c-15.166-8.783-27.812-21.428-36.585-36.595
			C113.389,150.004,113.389,150.004,113.4,150.004z"/>
		<path fill="#E62314" d="M149.964,213.395c14.709-8.518,31.787-13.388,50.003-13.398c-0.457,0.264-0.905,0.529-1.352,0.803
			c-0.041,0.03-0.081,0.051-0.122,0.071c-14.363,7.98-30.892,12.524-48.488,12.524C149.994,213.395,149.974,213.395,149.964,213.395
			z"/>
		<path d="M200.017,199.997v0.01c0,0,0,0-0.01,0.01c-0.01,0-0.01,0-0.01,0c0-0.01,0-0.01,0-0.02
			C200.007,199.997,200.007,199.997,200.017,199.997z"/>
		<path fill="#FDDF21" d="M186.599,149.964c-8.783-15.166-21.428-27.812-36.595-36.584c0-18.216,4.879-35.294,13.388-50.003
			c15.166,8.773,27.822,21.428,36.605,36.595C191.478,114.68,186.609,131.758,186.599,149.964z"/>
		<path fill="#E62314" d="M213.395,250.03c-8.518-14.709-13.388-31.776-13.398-49.992c0.285,0.488,0.579,0.986,0.874,1.474
			c7.98,14.363,12.523,30.892,12.523,48.488C213.395,250.01,213.395,250.02,213.395,250.03z"/>
		<path d="M199.997,199.997c0,0.01,0,0.01,0,0.02c-0.01,0-0.01-0.01-0.02-0.01c0-0.01,0-0.01,0-0.01
			C199.987,199.997,199.987,199.997,199.997,199.997z"/>
		<path fill="#F2793F" d="M186.599,250.03c8.518-14.709,13.388-31.776,13.398-49.992c0.01,18.216,4.879,35.283,13.398,49.992
			c-0.01,18.216-4.879,35.283-13.398,49.992C191.478,285.313,186.609,268.246,186.599,250.03z"/>
		<path fill="#E62314" d="M250.03,213.395c-0.01,0-0.02,0-0.031,0c-17.596,0-34.135-4.544-48.488-12.524
			c-0.488-0.295-0.986-0.59-1.474-0.874C218.253,200.007,235.331,204.876,250.03,213.395z"/>
		<path fill="#F2793F" d="M149.964,186.599c14.709,8.518,31.787,13.388,50.003,13.398c-18.216,0.01-35.294,4.879-50.003,13.398
			c-18.206-0.01-35.283-4.879-49.992-13.398C114.68,191.478,131.758,186.609,149.964,186.599z"/>
		<path fill="#F2793F" d="M213.395,249.999c0-17.596-4.544-34.125-12.523-48.488c8.752,14.526,21.083,26.653,35.781,35.141
			c8.488,14.699,13.347,31.766,13.347,49.952c0,0.01,0,0.01,0,0.02c-15.166-8.783-27.822-21.428-36.605-36.595
			C213.395,250.02,213.395,250.01,213.395,249.999z"/>
		<path d="M200.037,199.997c0.488,0.285,0.986,0.579,1.474,0.874c-0.498-0.274-0.976-0.549-1.464-0.823
			c-0.01-0.01-0.02-0.031-0.02-0.041v-0.01H200.037z"/>
		<path d="M199.123,198.492c0.295,0.488,0.59,0.976,0.874,1.474c-0.02,0-0.041-0.02-0.061-0.03
			C199.661,199.458,199.387,198.98,199.123,198.492z"/>
		<path fill="#F2793F" d="M199.123,201.511c-7.98,14.353-12.524,30.892-12.524,48.488c0,0.01,0,0.02,0,0.03
			c-8.783,15.166-21.428,27.812-36.595,36.595c0-0.01,0-0.01,0-0.02c0-18.186,4.859-35.253,13.347-49.952
			C178.04,228.165,190.381,216.037,199.123,201.511z"/>
		<path fill="#FDDF21" d="M300.022,199.997c15.177,8.783,27.822,21.438,36.605,36.615c-14.709,8.508-31.787,13.388-50.003,13.388
			c-8.773-15.166-21.418-27.822-36.595-36.605C268.246,213.384,285.313,208.515,300.022,199.997z"/>
		<path fill="#E62314" d="M199.966,199.997c-18.216-0.01-35.294-4.879-50.003-13.398c0.01,0,0.03,0,0.041,0
			c17.596,0,34.125,4.544,48.488,12.523C198.98,199.417,199.468,199.712,199.966,199.997z"/>
		<path d="M199.936,199.936c0.01,0.02,0.03,0.041,0.03,0.061c-0.498-0.285-0.986-0.579-1.474-0.874
			C198.98,199.387,199.458,199.661,199.936,199.936z"/>
		<path fill="#F2793F" d="M250.03,213.395c15.177,8.783,27.822,21.438,36.595,36.605c-0.01,0-0.01,0-0.02,0
			c-18.186,0-35.253-4.859-49.952-13.347c-8.488-14.699-20.615-27.029-35.141-35.781c14.353,7.98,30.892,12.524,48.488,12.524
			C250.01,213.395,250.02,213.395,250.03,213.395z"/>
		<path fill="#F2793F" d="M163.351,163.351c-8.488-14.699-13.347-31.756-13.347-49.952c0-0.01,0-0.01,0-0.02
			c15.166,8.773,27.812,21.418,36.595,36.584c0,0.01,0,0.03,0,0.041c0,17.596,4.544,34.125,12.524,48.488
			C190.381,183.966,178.04,171.839,163.351,163.351z"/>
		<path fill="#FDDF21" d="M336.627,163.392c-8.783,15.166-21.428,27.822-36.605,36.605c-14.709-8.518-31.776-13.388-49.992-13.398
			c15.177-8.783,27.822-21.428,36.595-36.595C304.841,150.004,321.918,154.884,336.627,163.392z"/>
		<path fill="#5A70B1" d="M199.123,201.511c0.274-0.488,0.549-0.966,0.823-1.454c0.01-0.01,0.02-0.02,0.041-0.03c0,0,0,0,0.01,0
			v0.01C199.712,200.525,199.417,201.024,199.123,201.511z"/>
		<path d="M199.997,200.017v0.01c-0.01,0-0.01,0-0.01,0c0-0.01,0-0.02-0.01-0.02C199.987,200.007,199.987,200.017,199.997,200.017z"
			/>
		<path d="M200.871,201.511c-0.295-0.488-0.59-0.986-0.874-1.474v-0.01h0.01c0.01,0,0.03,0.01,0.041,0.02
			C200.322,200.536,200.597,201.013,200.871,201.511z"/>
		<path fill="#E62314" d="M201.511,200.871c14.526,8.752,26.653,21.083,35.141,35.781c-14.699-8.488-27.029-20.615-35.781-35.141
			c-0.274-0.498-0.549-0.976-0.823-1.464C200.536,200.322,201.013,200.597,201.511,200.871z"/>
		<path fill="#24A14D" d="M336.627,236.612c-8.783-15.177-21.428-27.832-36.605-36.615c15.177-8.783,27.822-21.438,36.605-36.605
			c15.166,8.783,27.822,21.438,36.595,36.615C364.449,215.173,351.794,227.829,336.627,236.612z"/>
		<path fill="#814297" d="M250.03,13.395c-0.01,0-0.02,0-0.031,0c-18.216,0-35.283,4.869-49.992,13.377
			c-14.709-8.508-31.787-13.377-50.003-13.377c-0.01,0-0.03,0-0.041,0c14.719-8.518,31.807-13.398,50.033-13.398
			S235.311,4.876,250.03,13.395z"/>
		<path fill="#24A14D" d="M163.392,63.377c-8.508,14.709-13.388,31.787-13.388,50.003c-14.709-8.508-31.787-13.377-50.003-13.377
			c0-18.216,4.869-35.294,13.377-50.003c0.01,0,0.01,0,0.02,0C131.616,49.999,148.683,54.868,163.392,63.377z"/>
		<path fill="#FDDF21" d="M150.004,286.625c15.166-8.783,27.812-21.428,36.595-36.595c0.01,18.216,4.879,35.283,13.398,49.992
			c-8.783,15.177-21.438,27.822-36.605,36.605C154.884,321.918,150.004,304.841,150.004,286.625z"/>
		<path d="M201.511,199.123c-0.488,0.295-0.986,0.59-1.474,0.874h-0.01v-0.01c0.01-0.02,0.02-0.031,0.031-0.041
			C200.536,199.672,201.023,199.397,201.511,199.123z"/>
		<path fill="#F2793F" d="M150.004,213.395c17.596,0,34.125-4.544,48.488-12.524c-14.526,8.752-26.653,21.083-35.141,35.781
			c-14.699,8.488-31.756,13.347-49.952,13.347c-0.01,0-0.01,0-0.02,0c8.773-15.166,21.418-27.822,36.585-36.605
			C149.974,213.395,149.994,213.395,150.004,213.395z"/>
		<path fill="#F2793F" d="M200.871,198.492c7.98-14.363,12.523-30.892,12.523-48.488c0-0.01,0-0.031,0-0.041
			c8.783-15.166,21.438-27.812,36.605-36.584c0,0.01,0,0.01,0,0.02c0,18.196-4.859,35.253-13.347,49.952
			C221.954,171.839,209.623,183.966,200.871,198.492z"/>
		<path fill="#24A14D" d="M150.004,286.625c0,18.216,4.879,35.294,13.388,50.003c-14.709,8.508-31.776,13.377-49.992,13.377
			c-0.01,0-0.01,0-0.02,0c-8.508-14.709-13.377-31.787-13.377-50.003C118.218,300.002,135.295,295.133,150.004,286.625z"/>
		<path fill="#E62314" d="M249.999,186.599c0.01,0,0.02,0,0.031,0c-14.699,8.518-31.776,13.388-49.992,13.398
			c0.488-0.285,0.986-0.579,1.474-0.874C215.865,191.143,232.403,186.599,249.999,186.599z"/>
		<path fill="#814297" d="M350.004,286.625c15.166-8.783,27.812-21.428,36.595-36.595c-0.01,36.991-20.107,69.296-49.982,86.587
			C345.125,321.908,350.004,304.83,350.004,286.625z"/>
		<path d="M199.976,199.997c0,0,0,0,0,0.01c-0.01,0.02-0.02,0.031-0.03,0.051c-0.447,0.244-0.884,0.498-1.332,0.742
			c0.447-0.274,0.895-0.539,1.352-0.803H199.976z"/>
		<path fill="#F2793F" d="M286.625,150.004c-8.773,15.166-21.418,27.812-36.595,36.595c-0.01,0-0.02,0-0.031,0
			c-17.596,0-34.135,4.544-48.488,12.523c14.526-8.742,26.653-21.083,35.141-35.771c14.699-8.488,31.766-13.347,49.952-13.347
			C286.614,150.004,286.614,150.004,286.625,150.004z"/>
		<path fill="#E62314" d="M200.871,198.492c8.752-14.526,21.083-26.653,35.781-35.141c-8.488,14.689-20.615,27.029-35.141,35.771
			c-0.488,0.274-0.976,0.549-1.454,0.823C200.332,199.458,200.607,198.98,200.871,198.492z"/>
		<path fill="#24A14D" d="M350.004,286.625c-14.709,8.508-31.787,13.377-50.003,13.377c0-18.216-4.869-35.294-13.377-50.003
			c18.216,0,35.294-4.879,50.003-13.388c8.508,14.709,13.377,31.787,13.377,49.992C350.004,286.614,350.004,286.614,350.004,286.625
			z"/>
		<path fill="#5A70B1" d="M286.625,350.004c-8.773,15.166-21.418,27.812-36.595,36.595c-0.01,0-0.02,0-0.031,0
			c-18.216,0-35.283-4.869-49.992-13.377c15.166-8.773,27.822-21.428,36.605-36.595c14.709,8.508,31.787,13.377,49.992,13.377
			C286.614,350.004,286.614,350.004,286.625,350.004z"/>
		<path fill="#F2793F" d="M213.395,149.964c-8.518,14.709-13.388,31.787-13.398,50.003c-0.01-18.216-4.879-35.294-13.398-50.003
			c0.01-18.206,4.879-35.283,13.398-49.992C208.515,114.68,213.384,131.758,213.395,149.964z"/>
		<path fill="#FDDF21" d="M199.997,199.966v0.01c-0.01,0.01-0.01,0.02-0.02,0.02h-0.01c0-0.02-0.02-0.041-0.03-0.061
			C199.956,199.946,199.976,199.966,199.997,199.966z"/>
		<path fill="#FDDF21" d="M199.997,199.977c0,0.01,0,0.01,0,0.02c-0.01,0-0.01,0-0.02,0
			C199.987,199.997,199.987,199.987,199.997,199.977z"/>
		<path d="M200.007,199.977c0,0.01,0.01,0.01,0.01,0.02c-0.01,0-0.01,0-0.02,0c0-0.01,0-0.01,0-0.02
			C199.997,199.977,199.997,199.977,200.007,199.977z"/>
		<path fill="#24A14D" d="M163.392,336.627c15.166-8.783,27.822-21.428,36.605-36.605c8.783,15.177,21.438,27.822,36.615,36.605
			c-8.783,15.166-21.438,27.822-36.605,36.595C184.83,364.449,172.175,351.794,163.392,336.627z"/>
		<path fill="#5A70B1" d="M336.627,236.612c15.166-8.783,27.822-21.438,36.595-36.605c8.508,14.709,13.377,31.776,13.377,49.992
			c0,0.01,0,0.02,0,0.03c-8.783,15.166-21.428,27.812-36.595,36.595c0-0.01,0-0.01,0-0.02
			C350.004,268.398,345.135,251.321,336.627,236.612z"/>
		<path d="M200.058,199.946c-0.01,0.01-0.02,0.02-0.031,0.041c-0.01,0-0.02,0-0.02-0.01
			C200.027,199.966,200.037,199.956,200.058,199.946z"/>
		<path fill="#E62314" d="M199.997,199.966c0.01-18.216,4.879-35.294,13.398-50.003c0,0.01,0,0.03,0,0.041
			c0,17.596-4.544,34.125-12.523,48.488C200.576,198.98,200.281,199.468,199.997,199.966z"/>
		<path d="M199.997,199.966c0.285-0.498,0.579-0.986,0.874-1.474c-0.264,0.488-0.539,0.966-0.813,1.454
			c-0.02,0.01-0.031,0.02-0.051,0.031c-0.01,0-0.01,0-0.01,0V199.966z"/>
		<path fill="#814297" d="M249.999,386.599c0.01,0,0.02,0,0.031,0c-14.719,8.518-31.807,13.398-50.033,13.398
			s-35.314-4.879-50.033-13.398c0.01,0,0.03,0,0.041,0c18.216,0,35.294-4.869,50.003-13.377
			C214.716,381.73,231.783,386.599,249.999,386.599z"/>
		<path fill="#5A70B1" d="M163.392,336.627c8.783,15.166,21.438,27.822,36.615,36.595c-14.709,8.508-31.787,13.377-50.003,13.377
			c-0.01,0-0.03,0-0.041,0c-15.166-8.783-27.812-21.428-36.585-36.595c0.01,0,0.01,0,0.02,0
			C131.616,350.004,148.683,345.135,163.392,336.627z"/>
		<path fill="#814297" d="M386.599,149.964c8.518,14.719,13.398,31.807,13.398,50.033s-4.879,35.314-13.398,50.033
			c0-0.01,0-0.02,0-0.03c0-18.216-4.869-35.283-13.377-49.992c8.508-14.709,13.377-31.787,13.377-50.003
			C386.599,149.994,386.599,149.974,386.599,149.964z"/>
		<path fill="#24A14D" d="M286.625,49.999c8.508,14.709,13.377,31.787,13.377,50.003c-18.216,0-35.294,4.869-50.003,13.377
			c0-18.216-4.879-35.294-13.388-50.003c14.709-8.508,31.787-13.377,49.992-13.377C286.614,49.999,286.614,49.999,286.625,49.999z"
			/>
		<path fill="#FDDF21" d="M300.002,100.002c0,18.216-4.869,35.294-13.377,50.003c-0.01,0-0.01,0-0.02,0
			c-18.186,0-35.253,4.859-49.952,13.347c8.488-14.699,13.347-31.756,13.347-49.952c0-0.01,0-0.01,0-0.02
			C264.708,104.871,281.786,100.002,300.002,100.002z"/>
		<path fill="#FDDF21" d="M286.625,249.999c8.508,14.709,13.377,31.787,13.377,50.003c-18.216,0-35.294-4.869-50.003-13.377
			c0-0.01,0-0.01,0-0.02c0-18.186-4.859-35.253-13.347-49.952c14.699,8.488,31.766,13.347,49.952,13.347
			C286.614,249.999,286.614,249.999,286.625,249.999z"/>
		<path fill="#24A14D" d="M300.002,300.002c0,18.216-4.869,35.294-13.377,50.003c-0.01,0-0.01,0-0.02,0
			c-18.206,0-35.283-4.869-49.992-13.377c8.508-14.709,13.388-31.787,13.388-50.003
			C264.708,295.133,281.786,300.002,300.002,300.002z"/>
		<path fill="#FDDF21" d="M236.612,63.377c8.508,14.709,13.388,31.787,13.388,50.003c-15.166,8.773-27.822,21.418-36.605,36.584
			c-0.01-18.206-4.879-35.283-13.398-49.992C208.78,84.805,221.435,72.149,236.612,63.377z"/>
		<path fill="#FDDF21" d="M249.999,286.625c0,18.216-4.879,35.294-13.388,50.003c-15.177-8.783-27.832-21.428-36.615-36.605
			c8.518-14.709,13.388-31.776,13.398-49.992C222.177,265.196,234.833,277.842,249.999,286.625z"/>
		<rect x="200.017" y="199.997" fill="#24A14D" width="0.01" height="0.01"/>
		<path d="M200.027,199.987v0.01h-0.01c0-0.01-0.01-0.01-0.01-0.02C200.007,199.987,200.017,199.987,200.027,199.987z"/>
		<path d="M199.976,200.007c0.01,0,0.01,0.01,0.01,0.02c-0.02,0.01-0.03,0.02-0.041,0.03
			C199.956,200.037,199.966,200.027,199.976,200.007z"/>
		<path fill="#814297" d="M149.964,13.395c-15.166,8.783-27.812,21.438-36.585,36.605c-18.216,0-35.283,4.879-49.992,13.388
			C80.678,33.511,112.973,13.405,149.964,13.395z"/>
		<path fill="#FDDF21" d="M113.379,150.004c8.773,15.166,21.418,27.812,36.585,36.595c-18.206,0.01-35.283,4.879-49.992,13.398
			c-15.166-8.783-27.822-21.438-36.595-36.605C78.086,154.884,95.163,150.004,113.379,150.004z"/>
		<path fill="#FDDF21" d="M149.964,213.395c-15.166,8.783-27.812,21.438-36.585,36.605c-18.216,0-35.294-4.879-50.003-13.388
			c8.773-15.177,21.428-27.832,36.595-36.615C114.68,208.515,131.758,213.384,149.964,213.395z"/>
		<path fill="#814297" d="M113.379,350.004c8.773,15.166,21.418,27.812,36.585,36.595c-36.991-0.01-69.286-20.117-86.577-49.982
			C78.096,345.125,95.163,350.004,113.379,350.004z"/>
		<path fill="#5A70B1" d="M113.379,49.999c-8.508,14.709-13.377,31.787-13.377,50.003c-18.216,0-35.294,4.869-50.003,13.377
			c0-18.216,4.879-35.283,13.388-49.992C78.096,54.879,95.163,49.999,113.379,49.999z"/>
		<path fill="#24A14D" d="M100.002,100.002c0,18.216,4.869,35.294,13.377,50.003c-18.216,0-35.294,4.879-50.003,13.388
			c-8.508-14.709-13.377-31.776-13.377-49.992c0-0.01,0-0.01,0-0.02C64.708,104.871,81.786,100.002,100.002,100.002z"/>
		<path fill="#24A14D" d="M113.379,249.999c-8.508,14.709-13.377,31.787-13.377,50.003c-18.216,0-35.294-4.869-50.003-13.377
			c0-0.01,0-0.01,0-0.02c0-18.206,4.869-35.283,13.377-49.992C78.086,245.12,95.163,249.999,113.379,249.999z"/>
		<path fill="#5A70B1" d="M100.002,300.002c0,18.216,4.869,35.294,13.377,50.003c-18.216,0-35.283-4.879-49.992-13.388
			c-8.508-14.709-13.388-31.787-13.388-49.992C64.708,295.133,81.786,300.002,100.002,300.002z"/>
		<path fill="#24A14D" d="M63.377,163.392c8.773,15.166,21.428,27.822,36.595,36.605c-15.166,8.783-27.822,21.438-36.595,36.615
			c-15.177-8.783-27.822-21.438-36.605-36.605C35.544,184.83,48.2,172.175,63.377,163.392z"/>
		<path fill="#814297" d="M63.387,63.387c-8.508,14.709-13.388,31.776-13.388,49.992c-15.166,8.773-27.822,21.418-36.605,36.584
			C13.405,112.973,33.511,80.678,63.387,63.387z"/>
		<path fill="#5A70B1" d="M49.999,113.4c0,18.216,4.869,35.283,13.377,49.992c-15.177,8.783-27.832,21.438-36.605,36.615
			c-8.508-14.709-13.377-31.787-13.377-50.003c0-0.01,0-0.031,0-0.041c8.783-15.166,21.438-27.812,36.605-36.584
			C49.999,113.389,49.999,113.389,49.999,113.4z"/>
		<path fill="#5A70B1" d="M63.377,236.612c-8.508,14.709-13.377,31.787-13.377,49.992c0,0.01,0,0.01,0,0.02
			c-15.166-8.783-27.822-21.428-36.605-36.595c0-0.01,0-0.02,0-0.03c0-18.216,4.869-35.283,13.377-49.992
			C35.555,215.173,48.2,227.829,63.377,236.612z"/>
		<path fill="#814297" d="M49.999,286.625c0,18.206,4.879,35.283,13.388,49.992c-29.875-17.291-49.982-49.596-49.992-86.587
			C22.177,265.196,34.833,277.842,49.999,286.625z"/>
		<path fill="#814297" d="M13.395,150.004c0,18.216,4.869,35.294,13.377,50.003c-8.508,14.709-13.377,31.776-13.377,49.992
			c0,0.01,0,0.02,0,0.03c-8.518-14.719-13.398-31.807-13.398-50.033s4.879-35.314,13.398-50.033
			C13.395,149.974,13.395,149.994,13.395,150.004z"/>
	</g>
	<g>
	</g>
</g>
<circle display="none" fill-opacity="0" stroke="#000000" stroke-width="2" cx="250" cy="285" r="99.983"/>
<circle display="none" fill-opacity="0" stroke="#FFFFFF" stroke-width="2" cx="285" cy="250" r="99.983"/>
<circle display="none" fill-opacity="0" stroke="#000000" stroke-width="2" cx="300" cy="200" r="99.983"/>
<circle display="none" fill-opacity="0" stroke="#FFFFFF" stroke-width="2" cx="285" cy="150" r="99.983"/>
<circle display="none" fill-opacity="0" stroke="#000000" stroke-width="2" cx="250" cy="115" r="99.983"/>
<circle display="none" fill-opacity="0" stroke="#FFFFFF" stroke-width="2" cx="200" cy="100" r="99.983"/>
<circle display="none" fill-opacity="0" stroke="#000000" stroke-width="2" cx="150.83" cy="114.835" r="101.643"/>
<circle display="none" fill-opacity="0" stroke="#FFFFFF" stroke-width="2" cx="115" cy="150" r="99.983"/>
<circle display="none" fill-opacity="0" stroke="#000000" stroke-width="2" cx="100" cy="200" r="99.983"/>
<circle display="none" fill-opacity="0" stroke="#FFFFFF" stroke-width="2" cx="115" cy="250" r="99.983"/>
<circle display="none" fill-opacity="0" stroke="#000000" stroke-width="2" cx="150" cy="285" r="99.983"/>
<circle display="none" fill-opacity="0" stroke="#FFFFFF" stroke-width="2" cx="200" cy="300" r="99.983"/>
<circle display="none" cx="200" cy="200" r="10.806"/>
</svg>
